<svg xmlns="http://www.w3.org/2000/svg" viewBox="0 0 48 48">
  <path fill="#4285F4" d="M24 9.5c3.9 0 7.4 1.4 10.1 3.9l7.5-7.5C37 1.9 30.9 0 24 0 14.6 0 6.5 5.4 2.5 13.2l8.7 6.8C13.1 14 18.1 9.5 24 9.5z"/>
  <path fill="#34A853" d="M46.5 24.5c0-1.6-.1-3.1-.4-4.5H24v9h12.7c-.6 3-2.3 5.5-4.9 7.2l7.6 5.9c4.4-4.1 7.1-10.1 7.1-17.6z"/>
  <path fill="#FBBC05" d="M11.2 28.8c-.7-1.9-1.1-4-1.1-6.1s.4-4.2 1.1-6.1l-8.7-6.8C.9 13.1 0 17.3 0 21.7s.9 8.6 2.5 11.9l8.7-4.8z"/>
  <path fill="#EA4335" d="M24 46.5c6.9 0 12.7-2.3 16.9-6.3l-7.6-5.9c-2.1 1.4-4.8 2.2-9.3 2.2-5.9 0-10.9-4-12.7-9.5l-8.7 6.8C6.5 40.9 14.6 46.5 24 46.5z"/>
</svg>